<?xml version="1.0" encoding="UTF-8"?>
<svg version="1.1" xmlns="http://www.w3.org/2000/svg" width="1280" height="800">
<path d="M0 0 C422.4 0 844.8 0 1280 0 C1280 264 1280 528 1280 800 C857.6 800 435.2 800 0 800 C0 536 0 272 0 0 Z " fill="#072F48" transform="translate(0,0)"/>
<path d="M0 0 C39.6 0 79.2 0 120 0 C121.65 4.62 123.3 9.24 125 14 C127.36726851 18.48125081 127.36726851 18.48125081 129.86328125 22.890625 C131 25 131 25 131 27 C131.66 27 132.32 27 133 27 C134.58198783 29.19957154 136.05097931 31.40231403 137.5 33.6875 C146.87008347 48.16705762 146.87008347 48.16705762 158.95703125 60.3359375 C161.30435686 62.24790826 163.47866039 64.30487978 165.6875 66.375 C175.06954551 74.78599666 185.17029041 80.88623399 196.46875 86.2734375 C200 88 200 88 202.38134766 89.48681641 C206.91524497 92.1067209 211.90183711 93.42516509 216.875 95 C217.91914063 95.34289062 218.96328125 95.68578125 220.0390625 96.0390625 C235.30080274 100.91537463 249.04771511 102.42324638 264.98689079 102.34955978 C268.29016673 102.33561963 271.59285533 102.34237647 274.89613342 102.35440063 C284.27674498 102.38508246 293.65721147 102.38053746 303.0378418 102.36035156 C308.80655599 102.34935732 314.57482473 102.36278038 320.34347725 102.39024734 C322.52125338 102.39563781 324.69907548 102.39175422 326.87681389 102.37784958 C343.82657862 102.27083587 358.81752438 103.71535708 373 114 C373.90234375 114.64710937 374.8046875 115.29421875 375.734375 115.9609375 C390.55836549 127.30415674 398.1194565 141.8138805 401 160 C401.38723849 165.32250924 401.40223456 170.61857946 401.37231445 175.95043945 C401.3747495 177.49453475 401.37847569 179.03862846 401.38337708 180.5827179 C401.39268826 184.73120744 401.38344614 188.87945702 401.37004495 193.02792764 C401.35863166 197.39054105 401.36284526 201.75314435 401.36479187 206.11576843 C401.36567128 213.43276844 401.35466481 220.74967516 401.33618164 228.06665039 C401.31497983 236.50783498 401.31151469 244.94888349 401.3177436 253.39008933 C401.32344942 261.54224005 401.31777978 269.69434319 401.30657005 277.84648705 C401.30194424 281.30279616 401.30104137 284.75907599 401.3031559 288.21538734 C401.30504776 292.28588451 401.29686636 296.35624429 401.2810955 300.42671013 C401.27687593 301.91455135 401.27598631 303.40240658 401.27878571 304.89025116 C401.2909578 312.52017908 401.02771252 319.60039985 399 327 C398.80019531 327.95648438 398.60039062 328.91296875 398.39453125 329.8984375 C394.81952105 345.11022589 383.13770102 358.15365134 370.2890625 366.59765625 C369.53367187 367.06042969 368.77828125 367.52320313 368 368 C367.27739644 368.46930718 366.55479288 368.93861437 365.81029224 369.42214298 C354.58808794 375.72292321 342.63789353 376.73430067 330.05981445 376.63110352 C328.43323999 376.6362584 326.80667116 376.64355137 325.18011475 376.65278625 C320.81441037 376.67110479 316.44932648 376.658489 312.08364892 376.63869596 C307.4866837 376.62215299 302.88975299 376.63114349 298.29277039 376.63621521 C290.58074172 376.64071749 282.86895708 376.62497937 275.15698242 376.59692383 C266.27153296 376.56484626 257.38652246 376.56490706 248.50104171 376.5821386 C239.90890009 376.59805958 231.31691769 376.59123661 222.72478294 376.57420158 C219.08753344 376.56737249 215.45041316 376.56832045 211.81316566 376.57574654 C207.52416694 376.58346754 203.2356617 376.57109596 198.94674683 376.54389763 C197.38319042 376.53707447 195.81958737 376.53684969 194.25603294 376.54411316 C176.47627998 376.61712717 161.46350543 371.86317659 148.4140625 359.4765625 C134.12230348 344.8147903 128.15293597 330.07344117 127.3359375 309.86254883 C127.09434922 304.05688053 126.53759878 298.62242445 125 293 C124.74476562 292.00097656 124.48953125 291.00195312 124.2265625 289.97265625 C118.52709359 269.48866758 106.02910312 254.11204496 87.9375 243.1875 C82.76709937 240.30618279 77.61604423 237.87201474 72 236 C71.15824219 235.71253906 70.31648438 235.42507812 69.44921875 235.12890625 C62.8414589 233.1755515 56.52450652 232.76552507 49.6875 232.5625 C38.2708211 232.21583148 28.22245083 230.39646725 18 225 C18 224.34 18 223.68 18 223 C17.01 222.6596875 17.01 222.6596875 16 222.3125 C13.53647605 221.23470827 11.30997539 220.1106105 9 218.75 C8.360625 218.37359375 7.72125 217.9971875 7.0625 217.609375 C3.71201129 214.99497851 0.54885208 212.30989688 -0.45903456 208.0681088 C-0.62885801 205.80019125 -0.64269057 203.58004219 -0.60127258 201.30606079 C-0.60554471 200.44338825 -0.60981683 199.5807157 -0.61421841 198.69190156 C-0.62243919 195.80790357 -0.59497875 192.92536737 -0.56762695 190.04150391 C-0.56621629 187.97168004 -0.56700883 185.90185366 -0.56983948 183.83203125 C-0.57127429 178.21664386 -0.54187337 172.60179028 -0.50696969 166.98652697 C-0.47571742 161.11688981 -0.47277633 155.24724048 -0.46684265 149.37753296 C-0.45130095 138.26408419 -0.41026782 127.15088129 -0.3600952 116.03754079 C-0.29376329 101.01893619 -0.26676987 86.00026436 -0.23758411 70.98155022 C-0.1905664 47.32084931 -0.09095592 23.66066725 0 0 Z " fill="#0A9CCA" transform="translate(0,0)"/>
<path d="M0 0 C1.91815626 0.57798458 3.85680712 1.08689976 5.796875 1.58642578 C26.59921925 7.21618642 44.44117716 20.33926887 60.140625 34.64501953 C61.09710937 35.49451172 62.05359375 36.34400391 63.0390625 37.21923828 C78.58148678 51.75964381 87.854378 70.88440969 94.51074219 90.78759766 C95.03262671 92.32655016 95.58645236 93.85462865 96.1484375 95.37939453 C97.87875596 100.11677128 98.59863069 104.54182041 98.9296875 109.57861328 C99.02364986 111.70612846 99.02364986 111.70612846 100.140625 113.64501953 C100.3911266 118.34771349 100.33687904 123.06124863 100.328125 127.77001953 C100.32685608 128.45651581 100.32558716 129.14301208 100.32427979 129.85031128 C100.25525292 149.32416008 98.41707907 169.42485296 89.02783203 186.90478516 C87.76098054 189.38968263 86.94032907 191.9793393 86.140625 194.64501953 C85.480625 194.64501953 84.820625 194.64501953 84.140625 194.64501953 C83.91117188 195.47904297 83.68171875 196.31306641 83.4453125 197.17236328 C81.89027409 201.31137271 79.78262031 204.59636948 77.265625 208.20751953 C76.7809375 208.90570801 76.29625 209.60389648 75.796875 210.32324219 C70.82018043 217.33368213 65.22872941 223.58959197 59.140625 229.64501953 C58.25761719 230.52802734 57.37460937 231.41103516 56.46484375 232.32080078 C51.44124141 237.10624716 46.13377039 241.21621904 40.390625 245.08251953 C39.77662842 245.49590576 39.16263184 245.90929199 38.5300293 246.33520508 C35.51772079 248.29915389 32.58380307 249.94667652 29.25 251.30517578 C26.05072956 252.28777909 26.05072956 252.28777909 25.140625 254.64501953 C22.81905903 255.05231181 20.4837463 255.3894063 18.140625 255.64501953 C18.140625 256.30501953 18.140625 256.96501953 18.140625 257.64501953 C7.30078125 261.25830078 7.30078125 261.25830078 5.35578156 261.89988804 C3.93935778 262.37634283 2.52781481 262.86773269 1.12328339 263.3781805 C-4.54336784 265.39407634 -10.07757509 266.52967502 -16.03320312 267.30932617 C-16.98699104 267.43579309 -17.94077896 267.56226 -18.92346954 267.69255924 C-28.34157167 268.84904162 -37.68693669 269.05727176 -47.16593933 269.02514458 C-50.17939599 269.01579922 -53.19226077 269.02651248 -56.20568848 269.04176331 C-64.75398217 269.08125861 -73.30221587 269.08306156 -81.85058594 269.08081055 C-87.12807482 269.08075914 -92.4052342 269.10005965 -97.68263245 269.13014412 C-100.62389724 269.14082556 -103.56449545 269.12893672 -106.5057373 269.11631775 C-117.00820102 269.13687564 -125.91406571 269.98052921 -135.859375 273.64501953 C-136.94480591 274.03342514 -138.03023682 274.42183075 -139.14855957 274.82200623 C-146.63892638 277.59508716 -152.66982443 281.65043498 -158.859375 286.64501953 C-159.64183594 287.26248047 -160.42429687 287.87994141 -161.23046875 288.51611328 C-176.4557605 301.20825424 -182.7925767 316.66662747 -186.859375 335.64501953 C-187.189375 358.08501953 -187.519375 380.52501953 -187.859375 403.64501953 C-277.619375 403.64501953 -367.379375 403.64501953 -459.859375 403.64501953 C-459.859375 397.64501953 -459.859375 397.64501953 -458.859375 396.64501953 C-458.5283931 394.75610373 -458.20285762 392.86602119 -457.90917969 390.97094727 C-456.92875915 384.6768324 -455.99975084 378.77766928 -453.07421875 373.05908203 C-451.7549697 370.43755176 -450.65358444 367.74987864 -449.53857422 365.03662109 C-439.04734923 339.86950221 -420.19761185 319.84352517 -397.859375 304.64501953 C-396.65087891 303.79423828 -396.65087891 303.79423828 -395.41796875 302.92626953 C-391.03357282 299.9747388 -387.04761953 298.66413899 -381.859375 297.64501953 C-381.859375 296.98501953 -381.859375 296.32501953 -381.859375 295.64501953 C-364.9925908 289.14409426 -349.44035857 284.54865487 -331.22070312 284.43969727 C-330.18565643 284.42979767 -329.15060974 284.41989807 -328.084198 284.40969849 C-324.68636305 284.378284 -321.28851416 284.35340584 -317.890625 284.32861328 C-315.52550914 284.30802642 -313.16039682 284.2870295 -310.79528809 284.26564026 C-304.58771641 284.21059851 -298.38011252 284.16111067 -292.17248535 284.11279297 C-285.8311071 284.06244685 -279.4897753 284.00682938 -273.1484375 283.95166016 C-260.71878974 283.84429764 -248.28910154 283.74280451 -235.859375 283.64501953 C-235.859375 282.98501953 -235.859375 282.32501953 -235.859375 281.64501953 C-234.29703125 281.27763672 -234.29703125 281.27763672 -232.703125 280.90283203 C-212.70941387 275.84089481 -196.33555609 264.39682977 -185.296875 246.83251953 C-184.11181046 244.79230819 -182.96662003 242.72848988 -181.859375 240.64501953 C-181.54781117 240.05970648 -181.23624735 239.47439342 -180.9152422 238.87134361 C-173.22877809 224.01763833 -172.13393801 209.13357714 -172.22265625 192.66845703 C-172.21458789 190.60257908 -172.20405372 188.53670948 -172.19120789 186.47085571 C-172.16292932 181.08155496 -172.16203521 175.69264092 -172.16906738 170.30328369 C-172.17644546 161.67526661 -172.144647 153.04737032 -172.10661888 144.41945267 C-172.09790109 141.43964661 -172.10301223 138.46012063 -172.11018372 135.48031616 C-172.09424569 96.40030841 -159.8000538 62.74718402 -132.296875 34.58251953 C-116.96338848 19.33794909 -97.5704854 7.10188135 -76.859375 0.64501953 C-76.15441895 0.4179834 -75.44946289 0.19094727 -74.72314453 -0.04296875 C-51.17976558 -7.34442765 -23.54802527 -7.10688095 0 0 Z " fill="#026591" transform="translate(588.859375,396.35498046875)"/>
<path d="M0 0 C43.56 0 87.12 0 132 0 C131 7 131 7 130 10 C129.90623624 11.71676144 129.86929598 13.43693123 129.8671875 15.15625 C129.86525391 16.69152344 129.86525391 16.69152344 129.86328125 18.2578125 C129.86714844 19.32773437 129.87101563 20.39765625 129.875 21.5 C129.87113281 22.53898437 129.86726562 23.57796875 129.86328125 24.6484375 C129.87180535 31.48476475 130.25935892 38.20432281 131 45 C131.66 45 132.32 45 133 45 C133.1959375 45.79921875 133.391875 46.5984375 133.59375 47.421875 C138.03454434 63.73030938 150.19069726 80.50798239 164.6484375 89.6875 C168.34412687 91.75021035 172.06202431 93.4547184 176 95 C177.0003125 95.4228125 178.000625 95.845625 179.03125 96.28125 C189.63888447 100.62532888 199.54497291 101.97530722 210.91040039 102.53833008 C219.01852508 103.00818301 227.83463689 103.98252699 235 108 C235 108.66 235 109.32 235 110 C236.155 110.20625 237.31 110.4125 238.5 110.625 C248.0148219 113.07071126 253.32896194 120.48230038 259 128 C259.7115625 128.86882812 260.423125 129.73765625 261.15625 130.6328125 C263.01653918 133.02123462 264.02300949 135.15044434 265 138 C265.66 138 266.32 138 267 138 C267.67548578 140.05962852 268.34004312 142.12284322 269 144.1875 C269.37125 145.33605469 269.7425 146.48460937 270.125 147.66796875 C270.90630553 150.64320812 271.18363306 152.95283896 271 156 C271.66 156 272.32 156 273 156 C273.02334638 177.70501063 273.04098775 199.41001919 273.05181217 221.11503983 C273.05697142 231.19274566 273.06400708 241.2704437 273.07543945 251.34814453 C273.08539759 260.13047724 273.09185613 268.91280431 273.09408849 277.69514251 C273.09539367 282.34655566 273.09846741 286.99795267 273.10573006 291.64936066 C273.11250806 296.02575587 273.11461331 300.40212825 273.11310768 304.77852821 C273.11338321 306.3861815 273.11537779 307.99383554 273.11920547 309.6014843 C273.12417049 311.79402311 273.12298787 313.98647536 273.12025452 316.17901611 C273.12163721 318.0207585 273.12163721 318.0207585 273.12304783 319.89970779 C273.02101468 322.47051774 272.76347212 324.5603937 272 327 C271.34 327 270.68 327 270 327 C269.95875 327.9075 269.9175 328.815 269.875 329.75 C267.82823715 343.46884286 256.98987409 355.28182448 246.3671875 363.33984375 C238.29647059 369 238.29647059 369 235 369 C234.67 369.99 234.34 370.98 234 372 C231.70703125 372.9140625 231.70703125 372.9140625 228.8125 373.625 C227.87019531 373.86476563 226.92789063 374.10453125 225.95703125 374.3515625 C220.6381156 375.51792974 215.63687953 376.12739654 210.18457031 376.14717102 C209.19326882 376.15268605 209.19326882 376.15268605 208.18194103 376.1583125 C205.98066095 376.16927271 203.77942819 376.17318009 201.578125 376.17700195 C199.99406284 376.18327255 198.41000212 376.18991988 196.82594299 376.19691467 C191.63397229 376.21789204 186.44200151 376.22831332 181.25 376.23828125 C179.4567361 376.24233161 177.66347234 376.24644861 175.87020874 376.25063133 C167.44042209 376.26967161 159.01064411 376.2839033 150.58084011 376.2922433 C140.87937017 376.30200209 131.17812921 376.32829095 121.47673988 376.36874419 C113.95968759 376.39900335 106.44270057 376.41372155 98.92558861 376.41702431 C94.44487703 376.41936421 89.96441039 376.42818511 85.48376465 376.45348549 C81.26145241 376.47694259 77.03954331 376.48092948 72.81718254 376.47072411 C71.2782144 376.47023284 69.73922519 376.47643065 68.20031929 376.49028015 C48.98884521 376.65332491 33.59317711 371.31379805 19.7265625 357.7890625 C6.3620952 344.11824638 -0.66367752 327.42619302 -0.48101807 308.33258057 C-0.48276656 306.99403487 -0.48627654 305.65549055 -0.49137473 304.31695342 C-0.50024428 300.67257947 -0.48442317 297.02868305 -0.46426249 293.38436985 C-0.44688486 289.44180482 -0.45284143 285.49926373 -0.45587158 281.55667114 C-0.45796247 274.73710064 -0.44548097 267.91768398 -0.42292023 261.09815216 C-0.39032317 251.23844857 -0.37998535 241.37881889 -0.37496826 231.51906726 C-0.36622766 215.51983087 -0.33964569 199.52067635 -0.30175781 183.52148438 C-0.26500569 167.98568123 -0.23670962 152.44990038 -0.21972656 136.9140625 C-0.21867567 135.95540261 -0.21762477 134.99674271 -0.21654204 134.00903252 C-0.21132164 129.19940933 -0.20626687 124.38978598 -0.20129442 119.58016253 C-0.15987085 79.72003562 -0.08615382 39.86006025 0 0 Z " fill="#057FAB" transform="translate(416,0)"/>
<path d="M0 0 C13.64960344 10.39876531 23.29142535 23.98642579 26.25 41.125 C26.69042695 45.56689826 26.82693434 50.01074082 26.95019531 54.47094727 C27.53893872 74.81426765 35.58755792 94.70349007 50.25 109.125 C63.96731812 121.64396505 82.13584758 131.2087554 101.01678467 131.26976013 C102.0182216 131.2750504 102.0182216 131.2750504 103.03988957 131.28044754 C105.26976424 131.29109432 107.49959612 131.29480851 109.72949219 131.29858398 C111.33137185 131.30489247 112.93324978 131.3116586 114.53512573 131.31884766 C117.9819782 131.33349859 121.42882399 131.34523113 124.87569427 131.35479546 C130.3310003 131.3702741 135.78624878 131.39422402 141.24151611 131.41969299 C156.75342162 131.49082348 172.26536001 131.55062694 187.77734375 131.60180664 C196.34665189 131.6301548 204.91590266 131.66556004 213.48515058 131.70846039 C218.90264343 131.73515876 224.32007144 131.75310943 229.73761702 131.76449764 C233.11633991 131.77365739 236.49498436 131.7910351 239.87366104 131.81067657 C241.43405289 131.81811689 242.9944649 131.822231 244.55487442 131.82267189 C252.36581245 131.82665907 259.682023 132.00813029 267.25 134.125 C268.301875 134.40859375 269.35375 134.6921875 270.4375 134.984375 C277.22268992 137.13301847 282.61270288 139.79825401 288.25 144.125 C289.15878906 144.79660156 290.06757813 145.46820312 291.00390625 146.16015625 C297.43020837 151.11758931 302.13153197 156.13702292 306.25 163.125 C307.06791016 164.48044922 307.06791016 164.48044922 307.90234375 165.86328125 C316.48857846 181.3772848 316.93836877 198.54832829 312.41796875 215.36328125 C308.74450762 227.19452898 302.8891574 236.41367408 293.25 244.125 C292.71890625 244.681875 292.1878125 245.23875 291.640625 245.8125 C290.25 247.125 290.25 247.125 288.25 247.125 C287.92 248.115 287.59 249.105 287.25 250.125 C282.50684278 253.35034691 278.93716647 254.66074151 273.25 255.125 C273.25 255.785 273.25 256.445 273.25 257.125 C266.75795381 259.71003526 261.12060766 260.5577404 254.16308594 260.50976562 C253.19754288 260.5151384 252.23199982 260.52051117 251.23719788 260.52604675 C249.15514873 260.53577678 247.07305927 260.53878346 244.99098969 260.53569031 C241.68481878 260.53118243 238.37917476 260.54529794 235.07305908 260.56408691 C228.04871447 260.60075036 221.02442616 260.61455181 214 260.625 C205.86765533 260.63712265 197.73556921 260.65888971 189.60334015 260.70500183 C186.36580431 260.71846339 183.12860455 260.71442061 179.89105225 260.70959473 C169.51447052 260.73797438 160.26113807 261.2123655 150.25 264.125 C147.34322145 264.69272664 144.42457723 265.15903482 141.5 265.625 C135.50547141 266.62274433 129.96250128 268.05668057 124.25 270.125 C123.26 270.125 122.27 270.125 121.25 270.125 C121.25 270.785 121.25 271.445 121.25 272.125 C120.21101562 272.63289063 119.17203125 273.14078125 118.1015625 273.6640625 C110.99465472 277.16418685 104.09430156 280.7383051 97.375 284.94921875 C95.30356845 286.09536011 93.47643548 286.74488092 91.1875 287.3125 C90.218125 287.580625 89.24875 287.84875 88.25 288.125 C87.92 289.115 87.59 290.105 87.25 291.125 C85.31640625 292.82739258 85.31640625 292.82739258 82.8125 294.70703125 C77.23340235 299.05129657 72.23561501 303.80713216 67.25 308.8125 C66.40566406 309.64072266 65.56132812 310.46894531 64.69140625 311.32226562 C63.88574219 312.12728516 63.08007812 312.93230469 62.25 313.76171875 C61.528125 314.48061279 60.80625 315.19950684 60.0625 315.94018555 C58.12848977 318.27147023 57.27780422 320.29517222 56.25 323.125 C54.71098431 325.8132149 52.97357554 328.36444794 51.25 330.9375 C50.79882812 331.63037109 50.34765625 332.32324219 49.8828125 333.03710938 C48.72765853 334.77154913 47.49461741 336.45359656 46.25 338.125 C45.59 338.125 44.93 338.125 44.25 338.125 C43.97929687 338.98867188 43.70859375 339.85234375 43.4296875 340.7421875 C42.27606785 344.05024914 40.89963089 347.09804288 39.375 350.25 C34.84593838 359.97091276 31.83691538 369.51772352 30.25 380.125 C29.59 380.125 28.93 380.125 28.25 380.125 C28.18941406 380.94484375 28.12882812 381.7646875 28.06640625 382.609375 C27.94072266 384.22585938 27.94072266 384.22585938 27.8125 385.875 C27.69068359 387.47601562 27.69068359 387.47601562 27.56640625 389.109375 C27.25 392.125 27.25 392.125 26.25 396.125 C-10.71 396.125 -47.67 396.125 -85.75 396.125 C-86.01454385 346.86625654 -86.23611301 297.60818295 -86.36278395 248.34893242 C-86.37779245 242.53356437 -86.39332431 236.71819783 -86.40917969 230.90283203 C-86.41232741 229.7450966 -86.41547514 228.58736118 -86.41871825 227.39454286 C-86.47093532 208.64813729 -86.56555043 189.90217327 -86.67583355 171.15602966 C-86.78804943 151.92093784 -86.85470468 132.68607728 -86.87906194 113.45067155 C-86.89552841 101.58094818 -86.94753379 89.71247281 -87.0449976 77.84313361 C-87.10842704 69.70399534 -87.12760227 61.56550227 -87.11201653 53.42613478 C-87.10432893 48.72947199 -87.11611234 44.03498962 -87.1804657 39.3387146 C-87.23900271 35.03541858 -87.24173942 30.73576134 -87.20078674 26.43229537 C-87.19572867 24.87889136 -87.21085251 23.32525749 -87.24859819 21.77230389 C-87.52651607 9.62825937 -87.52651607 9.62825937 -83.17314386 5.04039836 C-80.24903074 2.39809423 -77.08413339 0.22619088 -73.75 -1.875 C-72.78087386 -2.49045319 -71.81174772 -3.10590638 -70.81325412 -3.74000967 C-68.18864805 -5.32478354 -65.54917108 -6.62571863 -62.75 -7.875 C-61.37908203 -8.49375 -61.37908203 -8.49375 -59.98046875 -9.125 C-39.70674182 -16.77746836 -17.24344436 -12.13250656 0 0 Z " fill="#04739F" transform="translate(85.75,403.875)"/>
<path d="M0 0 C0.98411782 -0.00551503 0.98411782 -0.00551503 1.9881168 -0.01114148 C4.17324343 -0.02210079 6.35832239 -0.02600893 8.54347229 -0.02983093 C10.11605986 -0.03610167 11.68864596 -0.042749 13.26123047 -0.04974365 C18.41592897 -0.0707217 23.57062753 -0.08114324 28.72535706 -0.09111023 C30.5062162 -0.09516074 32.2870752 -0.09927775 34.06793404 -0.10346031 C42.44059158 -0.12250175 50.81324039 -0.13673248 59.18591541 -0.14507228 C68.81832554 -0.15482764 78.45050483 -0.181107 88.08283371 -0.22157317 C95.54809739 -0.25184765 103.01329534 -0.26655202 110.47861916 -0.26985329 C114.92750538 -0.27219171 119.37614473 -0.28099267 123.82496452 -0.30631447 C128.01855347 -0.32979822 132.21173657 -0.33374804 136.40537453 -0.32355309 C137.93263484 -0.32306243 139.45991653 -0.32924148 140.98711395 -0.34310913 C160.80536948 -0.51279184 178.68693964 5.11913503 193.21852112 18.93843079 C207.0197585 32.72781144 211.34385975 48.05604039 211.60426331 67.08467102 C211.52894763 84.09038179 205.43753497 98.98136967 193.54176331 111.33467102 C192.46209837 112.30028684 191.3585053 113.24003112 190.22926331 114.14717102 C189.35141174 114.88000305 189.35141174 114.88000305 188.45582581 115.62763977 C184.80349545 118.47454357 181.96504839 119.80065016 177.22926331 120.14717102 C177.22926331 120.80717102 177.22926331 121.46717102 177.22926331 122.14717102 C175.8025065 122.95803931 174.36190294 123.74453756 172.91676331 124.52217102 C172.11625549 124.9630304 171.31574768 125.40388977 170.49098206 125.85810852 C160.76067454 129.70361928 150.41814423 129.44053048 140.1162262 129.42182922 C138.51832849 129.42618506 136.92043287 129.43137109 135.32254028 129.43731689 C131.01258219 129.45062318 126.70271223 129.45129505 122.39273763 129.4487536 C118.78212777 129.44767836 115.17153534 129.45258122 111.56092924 129.45735902 C103.03735591 129.46842485 94.51382666 129.46890786 85.99024963 129.46284485 C77.22367767 129.45680453 68.45726617 129.46912429 59.69072157 129.49041492 C52.13792278 129.50807717 44.58517486 129.51402508 37.0323562 129.51077718 C32.53283881 129.50897183 28.03343597 129.51152538 23.53393745 129.52549171 C19.3009292 129.53814134 15.06816982 129.53605913 10.83516502 129.52308083 C9.29052773 129.5207311 7.74587251 129.52339152 6.2012558 129.53170395 C-12.05483402 129.62279232 -27.0336331 125.43655972 -40.49339294 112.52217102 C-47.57743808 105.13435036 -52.74980051 97.58090592 -56.77073669 88.14717102 C-57.18581482 87.19713196 -57.60089294 86.2470929 -58.02854919 85.26826477 C-63.20733423 71.3797049 -62.81575541 53.66398306 -56.77073669 40.14717102 C-50.97015546 27.51631958 -42.77408174 18.50219544 -31.77073669 10.14717102 C-31.08495544 9.56838196 -30.39917419 8.9895929 -29.69261169 8.39326477 C-27.77073669 7.14717102 -27.77073669 7.14717102 -23.77073669 7.14717102 C-23.77073669 6.48717102 -23.77073669 5.82717102 -23.77073669 5.14717102 C-22.06496327 4.49460646 -20.3559758 3.85044061 -18.64573669 3.20967102 C-17.69440857 2.85002258 -16.74308044 2.49037415 -15.76292419 2.11982727 C-10.51047772 0.41243932 -5.50215622 0.02010324 0 0 Z " fill="#0892BF" transform="translate(188.77073669433594,390.8528289794922)"/>
<path d="M0 0 C1.54391628 -0.00628144 3.08783111 -0.01292965 4.63174438 -0.01991272 C9.65642281 -0.04074464 14.68110085 -0.05129095 19.70581055 -0.0612793 C21.44767967 -0.06533378 23.18954864 -0.06945089 24.93141747 -0.07362938 C33.11504106 -0.09263009 41.29865589 -0.10687529 49.48229724 -0.11524135 C58.88202722 -0.12501408 68.28152177 -0.15135621 77.68116885 -0.19174224 C84.9809498 -0.22201532 92.28066359 -0.23672051 99.58050603 -0.24002236 C103.92534769 -0.24235867 108.26993635 -0.2511336 112.61470985 -0.27648354 C116.70496356 -0.29996888 120.79480116 -0.30391657 124.88510513 -0.29372215 C126.37366951 -0.29323173 127.86225589 -0.29940382 129.35075569 -0.3132782 C141.43050049 -0.41944673 152.09694916 1.49264625 163.2800293 6.17700195 C163.2800293 6.83700195 163.2800293 7.49700195 163.2800293 8.17700195 C164.1565918 8.42063477 165.0331543 8.66426758 165.9362793 8.9152832 C174.09600907 11.99424666 181.15922358 19.20129138 186.2800293 26.17700195 C186.70670898 26.74418945 187.13338867 27.31137695 187.57299805 27.89575195 C205.16245427 53.44105453 197.2800293 93.61036501 197.2800293 119.17700195 C107.5200293 119.17700195 17.7600293 119.17700195 -74.7199707 119.17700195 C-74.7199707 37.80320619 -74.7199707 37.80320619 -56.13012695 17.45825195 C-50.09595412 11.74681446 -43.19432039 5.99135387 -34.7199707 5.17700195 C-34.7199707 4.51700195 -34.7199707 3.85700195 -34.7199707 3.17700195 C-23.61447343 -0.60896302 -11.59946285 0.02100533 0 0 Z " fill="#00608D" transform="translate(491.719970703125,680.822998046875)"/>
<path d="M0 0 C91.08 0 182.16 0 276 0 C276 47.97046233 276 47.97046233 257.46875 67.67578125 C242.4060406 81.85665481 226.13781733 86.79559276 205.98388672 86.63110352 C204.34908273 86.63625832 202.71428433 86.64355124 201.07949829 86.65278625 C196.69100139 86.67110719 192.30312164 86.65848681 187.91465139 86.63869596 C183.29279618 86.62215219 178.67097529 86.63114373 174.04910278 86.63621521 C166.2941924 86.64071787 158.53952465 86.62497817 150.78466797 86.59692383 C141.85266002 86.56485763 132.92108882 86.5649025 123.98904979 86.5821386 C115.34992557 86.59806686 106.7109596 86.59123123 98.07184219 86.57420158 C94.41588181 86.56737642 90.76005002 86.56831637 87.10409164 86.57574654 C82.79128862 86.58347479 78.47897573 86.57107289 74.16625595 86.54389763 C72.59505669 86.53708149 71.02381105 86.53684187 69.45261383 86.54411316 C50.55319978 86.62142197 36.33549255 81.50479305 22.3515625 68.453125 C8.87304055 54.3924742 4.00287791 39.76657377 2.375 20.75 C2.13640117 18.09861837 1.89232076 15.44778001 1.6484375 12.796875 C1.54708496 11.63510742 1.44573242 10.47333984 1.34130859 9.27636719 C1.01759515 6.16890335 0.51362837 3.08177023 0 0 Z " fill="#01618D" transform="translate(702,0)"/>
<path d="M0 0 C83.49 0 166.98 0 253 0 C250.98207659 6.05377023 249.16383394 11.14458262 246.0625 16.5625 C245.67336426 17.24304443 245.28422852 17.92358887 244.88330078 18.62475586 C233.62858695 37.81243387 218.70360817 53.94415314 200 66 C199.40751465 66.39413086 198.8150293 66.78826172 198.20458984 67.19433594 C189.75264342 72.79264372 181.32608714 76.69424734 171.6796875 79.80859375 C168.17331377 80.8870086 168.17331377 80.8870086 165.55078125 82.02734375 C136.97332274 92.92441445 100.1450732 89.01541512 72.69921875 77.13671875 C41.9720949 63.3573191 15.80103176 39.09152894 2 8 C1.34 5.36 0.68 2.72 0 0 Z " fill="#0785B3" transform="translate(138,0)"/>
<path d="M0 0 C0 0.66 0 1.32 0 2 C0.87785156 2.24621094 1.75570312 2.49242188 2.66015625 2.74609375 C15.79974376 7.67920204 24.06066353 20.87436023 29.9375 32.921875 C34.97562512 44.6452046 35.61864418 65.92046905 31 78 C23.16239546 96.5627476 10.38277585 110.25582734 -8.171875 118.390625 C-24.12729251 123.81088645 -43.59866576 122.81568479 -59 116 C-71.34994746 109.56674536 -80.14430899 99.93460147 -87 88 C-87.47566406 87.1853125 -87.95132813 86.370625 -88.44140625 85.53125 C-94.78713018 73.86269496 -97.53242366 58.56799874 -94.390625 45.45703125 C-93.66710262 43.60761945 -92.83628599 41.80123136 -92 40 C-91.22234113 37.02133088 -90.59424266 34.02015094 -90 31 C-89.34 31 -88.68 31 -88 31 C-87.89042969 30.26523438 -87.78085937 29.53046875 -87.66796875 28.7734375 C-86.55865414 24.16751133 -83.76020036 20.78298244 -81 17 C-80.59136719 16.41089844 -80.18273437 15.82179688 -79.76171875 15.21484375 C-72.85508355 6.1699314 -61.70133031 -0.60645733 -51 -4 C-50.27296875 -4.29519531 -49.5459375 -4.59039062 -48.796875 -4.89453125 C-33.05101273 -10.75906158 -14.77931687 -6.62128573 0 0 Z " fill="#02618E" transform="translate(800,110)"/>
<path d="M0 0 C13.87297933 10.9852143 23.41726466 25.21723211 26 43 C27.49499689 59.87685382 23.43718467 77.10066292 12.8984375 90.71484375 C10.68352564 93.24562792 8.39203878 95.63678096 6 98 C5.38511719 98.63679688 4.77023438 99.27359375 4.13671875 99.9296875 C-8.19054968 111.80821168 -25.57504892 116.63684547 -42.25756836 116.47290039 C-59.30165499 115.90491809 -74.04086965 107.95913035 -86 96 C-86.23009468 93.24246618 -86.3355146 90.58291702 -86.35400391 87.82177734 C-86.3671463 86.97602142 -86.3802887 86.1302655 -86.39382935 85.25888062 C-86.43334688 82.45122946 -86.45663532 79.64379285 -86.4765625 76.8359375 C-86.48471355 75.87689137 -86.49286461 74.91784523 -86.50126266 73.92973709 C-86.54301325 68.85013944 -86.57159964 63.77065019 -86.59033203 58.69091797 C-86.61242591 53.45142624 -86.6811706 48.21364183 -86.76067543 42.97475243 C-86.81306563 38.94085616 -86.82972073 34.90736403 -86.83689499 30.8731575 C-86.84661812 28.94263855 -86.86982295 27.01213714 -86.90697098 25.08195114 C-87.17917923 9.99601062 -87.17917923 9.99601062 -84.26898193 5.06988525 C-82.27777427 3.03932228 -80.39799843 1.51314234 -78 0 C-76.989375 -0.763125 -75.97875 -1.52625 -74.9375 -2.3125 C-72.38261192 -3.78020166 -69.85318976 -5.04317406 -67.12109375 -6.14453125 C-65.43587108 -6.82420669 -63.76412053 -7.53726658 -62.09765625 -8.26171875 C-60.53337891 -8.93654297 -60.53337891 -8.93654297 -58.9375 -9.625 C-57.46603516 -10.26308594 -57.46603516 -10.26308594 -55.96484375 -10.9140625 C-37.06837156 -17.83530001 -15.54221204 -11.48592235 0 0 Z " fill="#098EBA" transform="translate(86,260)"/>
<path d="M0 0 C0.66 0 1.32 0 2 0 C2.20753906 0.556875 2.41507813 1.11375 2.62890625 1.6875 C7.24105781 13.11174153 13.80190768 18.14565456 25 23 C25 23.66 25 24.32 25 25 C24.21496094 25.3403125 23.42992187 25.680625 22.62109375 26.03125 C11.73574938 31.05320028 6.17844446 36.78827324 2 48 C1.34 48 0.68 48 0 48 C-0.32871094 47.2265625 -0.65742187 46.453125 -0.99609375 45.65625 C-5.1175936 36.63139397 -10.03203679 29.6603726 -19.5625 26 C-20.696875 25.67 -21.83125 25.34 -23 25 C-23 24.34 -23 23.68 -23 23 C-22.39671875 22.74605469 -21.7934375 22.49210937 -21.171875 22.23046875 C-17.08170164 20.46905538 -13.49730392 18.79784313 -10 16 C-9.34 16 -8.68 16 -8 16 C-7.62875 15.195625 -7.62875 15.195625 -7.25 14.375 C-6 12 -6 12 -4 9.125 C-2.06637651 6.10371329 -0.98060728 3.43212548 0 0 Z " fill="#80BCD3" transform="translate(55,32)"/>
<path d="M0 0 C0.66 0.33 1.32 0.66 2 1 C-3.94 6.94 -9.88 12.88 -16 19 C-16 14.80130728 -14.19810866 13.66463027 -11.375 10.625 C-10.9207666 10.13475342 -10.4665332 9.64450684 -9.99853516 9.1394043 C-6.85830473 5.79321137 -3.64356736 2.78061719 0 0 Z " fill="#043855" transform="translate(432,680)"/>
<path d="M0 0 C0.66 0.33 1.32 0.66 2 1 C-3.28 6.28 -8.56 11.56 -14 17 C-14 12.95607032 -12.51908749 11.99868382 -9.8125 9.0625 C-9.03519531 8.20785156 -8.25789063 7.35320313 -7.45703125 6.47265625 C-5.09786332 4.09848566 -2.65532732 2.0327639 0 0 Z " fill="#01557E" transform="translate(443,692)"/>
<path d="M0 0 C0.66 0.33 1.32 0.66 2 1 C-2.62 5.62 -7.24 10.24 -12 15 C-12.66 14.67 -13.32 14.34 -14 14 C-12.60919892 12.41224451 -11.21211596 10.82999061 -9.8125 9.25 C-8.64654297 7.92742187 -8.64654297 7.92742187 -7.45703125 6.578125 C-5.11544754 4.12113732 -2.69841735 2.05137234 0 0 Z " fill="#0B8AB4" transform="translate(154,403)"/>
<path d="M0 0 C0.66 0.33 1.32 0.66 2 1 C-2.62 5.62 -7.24 10.24 -12 15 C-12 10.09687565 -8.29800369 7.38658643 -5 4 C-3.37458956 2.61667196 -1.72614587 1.25537882 0 0 Z " fill="#035882" transform="translate(730,116)"/>
<path d="M0 0 C0.66 0.33 1.32 0.66 2 1 C-1.3 4.3 -4.6 7.6 -8 11 C-8.33 10.01 -8.66 9.02 -9 8 C-6.03 5.36 -3.06 2.72 0 0 Z " fill="#046C95" transform="translate(9,404)"/>
</svg>
